# xmcd CD database file
#
# Track frame offsets:
#	150
#	16620
#	35493
#	49887
#	63651
#	76255
#	95756
#	109236
#	129046
#	141892
#	159956
#	174604
#	188496
#	207238
#	225106
#	239168
#	253359
#	265519
#
# Disc length: 3742 seconds
#
# Revision: 4
# Processed by: cddbd v1.5.2PL0 Copyright (c) Steve Scherf et al.
# Submitted via: CDex 1.70beta2
#
DISCID=ec0e9c12
DTITLE=Various Artist - Best Jazz 100 (Disc6)
DYEAR=2006
DGENRE=Jazz
TTITLE0=Boogie Woogie Stomp - Albert Ammons
TTITLE1=Summertime - Sidney Bechet
TTITLE2=Round Midnight - Thelonious Monk
TTITLE3=Topsy - the Ike Quebec Swing Seven
TTITLE4=Tin Tin Deo - James Moody’s Modernists
TTITLE5=Blues For Clarinets - Jummy Hamilton ＆ the Duke’s Men
TTITLE6=Our Delight - Fats Navarro ＆ Tadd Dameron
TTITLE7=The Lady Sings The Blues - Herbie Nichols
TTITLE8=Safari - Horace Silver
TTITLE9=Chicago Flyer - Meade Lux Lewis
TTITLE10=Timepiece - Gil Melle
TTITLE11=Bouncing With Bud - Bud Powell
TTITLE12=Profoundly Blue - Edmond Hall’s Celeste Quartet
TTITLE13=Carvin’ The Rock - Lou Donaldson-Clifford Brown Quintet
TTITLE14=Bags’ Groove - Milt Jackson
TTITLE15=Boperation - Howard McGhee-Fats Navarro Boptet
TTITLE16=Lop-Pow - Bob’s Three Bips and A Bop
TTITLE17=Born To Be Blue - Wynton Kelly
EXTD=YEAR: 2006
EXTT0=
EXTT1=
EXTT2=
EXTT3=
EXTT4=
EXTT5=
EXTT6=
EXTT7=
EXTT8=
EXTT9=
EXTT10=
EXTT11=
EXTT12=
EXTT13=
EXTT14=
EXTT15=
EXTT16=
EXTT17=
PLAYORDER=
